<svg xmlns="http://www.w3.org/2000/svg" id="quantitative-svg" viewBox="0 0 40 40" width="40" height="40" fill="none" role="img" aria-label="Quantitative and Computational Science neural network graph emblem">
  <!-- SYNAPTIC EDGES -->
  <line x1="7.5" y1="10" x2="20" y2="11" stroke="currentColor" stroke-width="1.2" stroke-opacity="0.3"/>
  <line x1="7.5" y1="10" x2="20" y2="20" stroke="#a6192e" stroke-width="1.4" stroke-opacity="0.6"/>
  <line x1="7.5" y1="20" x2="20" y2="11" stroke="currentColor" stroke-width="1.2" stroke-opacity="0.25"/>
  <line x1="7.5" y1="20" x2="20" y2="20" stroke="#a6192e" stroke-width="1.6" stroke-opacity="0.75"/>
  <line x1="7.5" y1="20" x2="20" y2="29" stroke="currentColor" stroke-width="1.2" stroke-opacity="0.25"/>
  <line x1="7.5" y1="30" x2="20" y2="20" stroke="#a6192e" stroke-width="1.4" stroke-opacity="0.6"/>
  <line x1="7.5" y1="30" x2="20" y2="29" stroke="currentColor" stroke-width="1.2" stroke-opacity="0.3"/>

  <line x1="20" y1="11" x2="32.5" y2="20" stroke="currentColor" stroke-width="1.2" stroke-opacity="0.35"/>
  <line x1="20" y1="20" x2="32.5" y2="20" stroke="#a6192e" stroke-width="1.8" stroke-opacity="0.8"/>
  <line x1="20" y1="29" x2="32.5" y2="20" stroke="currentColor" stroke-width="1.2" stroke-opacity="0.35"/>

  <!-- NODES -->
  <!-- Layer 1: Inputs -->
  <circle id="node-in-1" cx="7.5" cy="10" r="1.9" fill="currentColor"/>
  <circle id="node-in-2" cx="7.5" cy="20" r="2.1" fill="currentColor"/>
  <circle id="node-in-3" cx="7.5" cy="30" r="1.9" fill="currentColor"/>

  <!-- Layer 2: Hidden Units -->
  <circle id="node-hid-1" cx="20" cy="11" r="1.9" fill="currentColor"/>
  <circle id="node-hid-hub" cx="20" cy="20" r="2.4" fill="#a6192e"/>
  <circle id="node-hid-2" cx="20" cy="29" r="1.9" fill="currentColor"/>

  <!-- Layer 3: Output Activation -->
  <circle id="node-out" cx="32.5" cy="20" r="2.5" fill="#a6192e"/>
</svg>
